<svg width="93" height="99" viewBox="0 0 93 99" fill="none" xmlns="http://www.w3.org/2000/svg">
<path d="M40.354 18.0159C43.8736 15.9791 48.2088 15.9791 51.7284 18.0159L70.7688 29.0248C74.2885 31.0616 76.4604 34.8172 76.4604 38.8907V60.9C76.4604 64.9736 74.2885 68.7292 70.7688 70.7659L51.7284 81.7663C48.2088 83.8031 43.8736 83.8031 40.354 81.7663L21.3136 70.7573C17.7939 68.7206 15.6221 64.965 15.6221 60.8914V38.8821C15.6221 34.8086 17.7939 31.053 21.3136 29.0162L40.354 18.0159Z" fill="#222533"/>
<path fill-rule="evenodd" clip-rule="evenodd" d="M52.947 15.9012L71.9874 26.9102C76.2624 29.3766 78.8979 33.9487 78.8979 38.8902V60.8995C78.8979 65.8411 76.2624 70.4045 71.9874 72.8796L52.947 83.8799C48.6719 86.355 43.4096 86.355 39.1345 83.8799L20.0941 72.871C15.819 70.4045 13.1836 65.8411 13.1836 60.8995V38.8816C13.1836 33.9401 15.819 29.3766 20.0941 26.9016L39.1345 15.9012C43.4096 13.4262 48.6719 13.4262 52.947 15.9012ZM51.728 18.0154C48.2083 15.9786 43.8732 15.9786 40.3535 18.0154L21.3131 29.0157C17.7935 31.0525 15.6216 34.8081 15.6216 38.8816V60.8909C15.6216 64.9645 17.7935 68.7201 21.3131 70.7568L40.3535 81.7658C43.8732 83.8026 48.2083 83.8026 51.728 81.7658L70.7684 70.7568C74.288 68.7201 76.4599 64.9645 76.4599 60.8909V38.8816C76.4599 34.8081 74.288 31.0525 70.7684 29.0157L51.728 18.0154Z" fill="#222533"/>
<path d="M61.5742 61.595C58.3035 60.1426 53.7537 58.6731 48.6116 58.5527C48.4571 58.5527 48.3369 58.6816 48.3369 58.8191V73.8759L66.2699 64.0959C66.0467 63.9498 65.7634 63.7779 65.42 63.5716C64.5187 63.0388 63.2138 62.3169 61.5742 61.595Z" fill="white"/>
<path d="M26.069 36.7936C27.1506 37.3265 28.713 38.0484 30.6445 38.7617C34.5076 40.1969 39.8214 41.6235 45.6331 41.6235C51.4362 41.6235 56.7414 40.1969 60.613 38.7617C62.5445 38.0484 64.1155 37.3265 65.1971 36.7936C65.6177 36.5874 65.9697 36.4069 66.2358 36.2608L47.7363 26.1886C46.4228 25.4839 44.869 25.4581 43.5642 26.1886H43.5556L25.0303 36.2608C25.2964 36.3983 25.6484 36.5874 26.069 36.7936Z" fill="white"/>
<path fill-rule="evenodd" clip-rule="evenodd" d="M44.4476 69.3901L24.1367 58.3726L24.1882 62.4805L44.4476 73.7129V69.3901Z" fill="white"/>
<path fill-rule="evenodd" clip-rule="evenodd" d="M44.4476 60.3238L24.1367 49.1172L24.1882 53.5345L44.4476 64.5606V60.3238Z" fill="white"/>
<path fill-rule="evenodd" clip-rule="evenodd" d="M37.125 47.252L24.1538 40.2393L24.2568 44.3472L44.4046 55.4593C44.0183 52.8897 41.6576 49.7185 37.125 47.252Z" fill="white"/>
</svg>
